<svg width="30" height="30" viewBox="0 0 30 30" fill="none" xmlns="http://www.w3.org/2000/svg">
<rect width="30" height="30" rx="15" fill="#F8F0E8"/>
<path d="M14.4141 21.6839C9.80018 21.6839 8.56741 16.8742 9.12465 13.7229C9.14891 13.5857 9.32869 13.5462 9.40703 13.6614C9.64962 14.0179 9.8655 14.533 10.2232 14.4882C10.7608 14.421 11.1332 9.67722 14.3195 8.34244C14.4206 8.30008 14.5264 8.38044 14.5153 8.48949C14.3577 10.0353 15.2859 12.2484 16.9302 12.2484C17.8728 12.2484 18.5177 11.4961 18.84 10.7406C18.9379 10.5111 19.2732 10.54 19.3293 10.7831C19.9044 13.2737 21.4416 21.6839 14.4141 21.6839Z" fill="#FF8F1F"/>
<path d="M13.6808 17.0461C13.7893 16.9549 13.9541 17.0175 13.9787 17.1571C14.0363 17.4836 14.2259 18.0449 14.8476 18.0449C15.5955 18.0449 16.1031 15.9869 16.2362 15.3816C16.2581 15.282 16.3551 15.2144 16.4551 15.2347C18.3241 15.6147 19.2329 21.684 15.1233 21.684C12.1316 21.684 12.8094 17.7782 13.6808 17.0461ZM18.7881 10.4734C18.854 9.95819 17.9135 11.3673 17.9135 11.3673C17.9135 11.3673 18.6305 11.706 18.7881 10.4734ZM9.3115 18.157C9.33132 17.9377 9.04916 17.3505 8.99921 17.583C8.87963 18.1393 9.29167 18.3764 9.3115 18.157Z" fill="#FFB636"/>
<path d="M16.8368 17.5319C16.7667 17.2396 16.5154 17.9186 16.547 18.1951C16.5786 18.4717 17.0045 18.2313 16.8368 17.5319Z" fill="#FFD469"/>
</svg>
