<svg width="30" height="30" viewBox="0 0 30 30" fill="none" xmlns="http://www.w3.org/2000/svg">
<rect width="30" height="30" rx="15" fill="#F8F0E8"/>
<path d="M21.3 12.525C19.925 8.82499 15.425 10.475 15 12.325C14.425 10.35 10.05 8.87499 8.70001 12.525C7.20001 16.575 14.475 20.2 15 20.8C15.525 20.325 22.8 16.5 21.3 12.525Z" fill="#FF5A79"/>
<path d="M22 11.625C21.85 11.15 21.6 10.725 21.25 10.375C20.925 10.025 20.5 9.74995 20.075 9.57495C19.85 9.47495 19.625 9.42495 19.4 9.37495C19.275 9.34995 19.175 9.34995 19.05 9.32495H18.7L19 9.47495L19.3 9.62495C19.5 9.72495 19.7 9.82495 19.875 9.94995C20.25 10.175 20.575 10.45 20.875 10.75C21.175 11.05 21.4 11.4 21.625 11.8C21.725 12 21.825 12.2 21.9 12.4C21.95 12.5 21.975 12.625 22.025 12.725L22.15 13.05C22.175 12.925 22.175 12.8 22.175 12.7C22.175 12.575 22.175 12.45 22.15 12.35C22.125 12.1 22.075 11.85 22 11.625Z" fill="#FF5A79"/>
<path d="M22.5 10.95C22.475 10.775 22.45 10.6 22.4 10.425C22.3 10.075 22.1 9.75 21.85 9.475C21.6 9.2 21.3 9 20.975 8.9C20.8 8.85 20.65 8.8 20.475 8.775C20.4 8.775 20.3 8.75 20.225 8.75C20.15 8.75 20.05 8.75 19.975 8.775C20.05 8.825 20.125 8.85 20.2 8.9C20.25 8.925 20.325 8.975 20.4 9C20.55 9.075 20.675 9.15 20.8 9.25C21.05 9.425 21.3 9.625 21.5 9.825C21.7 10.05 21.875 10.3 22.05 10.575C22.125 10.7 22.2 10.85 22.275 11C22.3 11.075 22.35 11.15 22.375 11.225C22.4 11.3 22.45 11.375 22.475 11.475C22.5 11.375 22.5 11.3 22.5 11.2V10.95Z" fill="#FF5A79"/>
<path d="M8.075 12.4C8.15 12.2 8.25 11.975 8.35 11.8C8.55 11.4 8.8 11.05 9.1 10.75C9.4 10.45 9.725 10.175 10.1 9.94995C10.275 9.82495 10.475 9.72495 10.675 9.62495L10.975 9.47495L11.275 9.32495H10.925C10.8 9.32495 10.7 9.34995 10.575 9.37495C10.35 9.42495 10.125 9.47495 9.9 9.57495C9.475 9.74995 9.075 10.025 8.75 10.375C8.425 10.725 8.15 11.15 8 11.625C7.925 11.85 7.875 12.1 7.85 12.325C7.825 12.45 7.825 12.575 7.825 12.675C7.825 12.8 7.825 12.925 7.85 13.025L7.975 12.7C8 12.6 8.025 12.5 8.075 12.4Z" fill="#FF5A79"/>
<path d="M8.5 9.84998C8.7 9.62498 8.95 9.42498 9.2 9.24998C9.325 9.17498 9.475 9.07498 9.6 8.99998C9.675 8.94998 9.75 8.92498 9.825 8.87498C9.9 8.82498 9.975 8.79998 10.05 8.74998C9.975 8.74998 9.875 8.72498 9.8 8.72498C9.725 8.72498 9.625 8.72498 9.55 8.74998C9.375 8.77498 9.225 8.82498 9.05 8.87498C8.7 9.02498 8.4 9.22498 8.15 9.47498C7.9 9.74998 7.7 10.075 7.6 10.425C7.55 10.6 7.525 10.775 7.5 10.95V11.225C7.5 11.325 7.5 11.4 7.525 11.5C7.55 11.425 7.6 11.35 7.625 11.25C7.675 11.15 7.7 11.075 7.75 11C7.825 10.85 7.9 10.7 7.975 10.575C8.125 10.3 8.3 10.05 8.5 9.84998Z" fill="#FF5A79"/>
<path d="M8.95 17.125L8.925 17.175C9.05 17.55 9.25 17.85 9.45 18.15C9.65 18.45 9.9 18.7 10.15 18.925C10.4 19.15 10.675 19.375 10.975 19.575C11.275 19.775 11.6 19.925 11.975 20.025L12 19.975C11.5 19.475 11 19 10.5 18.525C9.975 18.075 9.475 17.575 8.95 17.125Z" fill="#FF5A79"/>
<path d="M7.9 17.875L7.875 17.925C8.05 18.35 8.275 18.7 8.525 19.025C8.775 19.35 9.05 19.65 9.35 19.925C9.65 20.2 9.95 20.45 10.3 20.7C10.65 20.925 11 21.15 11.425 21.275L11.45 21.225C10.875 20.65 10.275 20.1 9.7 19.525C9.1 18.975 8.5 18.4 7.9 17.875Z" fill="#FF5A79"/>
<path d="M19.875 18.925C20.125 18.675 20.375 18.425 20.575 18.15C20.775 17.875 20.975 17.55 21.1 17.175L21.075 17.125C20.55 17.575 20.05 18.075 19.525 18.525C19.025 19 18.525 19.475 18.025 19.975L18.05 20.025C18.425 19.925 18.75 19.75 19.05 19.575C19.35 19.375 19.6 19.15 19.875 18.925Z" fill="#FF5A79"/>
<path d="M20.3 19.525C19.725 20.1 19.125 20.65 18.55 21.225L18.575 21.275C19 21.125 19.35 20.925 19.7 20.7C20.05 20.475 20.35 20.225 20.65 19.925C20.95 19.65 21.225 19.35 21.475 19.025C21.725 18.7 21.95 18.35 22.125 17.925L22.1 17.875C21.5 18.4 20.9 18.975 20.3 19.525Z" fill="#FF5A79"/>
</svg>
