<svg width="20" height="22" viewBox="0 0 20 22" fill="none" xmlns="http://www.w3.org/2000/svg">
<path d="M8.592 0.494997C8.99135 0.17461 9.48802 0 10 0C10.512 0 11.0087 0.17461 11.408 0.494997L19.158 6.713C19.4209 6.92393 19.6331 7.19124 19.7788 7.49518C19.9246 7.79912 20.0001 8.13192 20 8.469V19.749C20 20.3457 19.7629 20.918 19.341 21.34C18.919 21.7619 18.3467 21.999 17.75 21.999H14.75C14.1533 21.999 13.581 21.7619 13.159 21.34C12.7371 20.918 12.5 20.3457 12.5 19.749V13.749C12.5 13.5501 12.421 13.3593 12.2803 13.2187C12.1397 13.078 11.9489 12.999 11.75 12.999H8.25C8.05109 12.999 7.86032 13.078 7.71967 13.2187C7.57902 13.3593 7.5 13.5501 7.5 13.749V19.749C7.5 20.3457 7.26295 20.918 6.84099 21.34C6.41903 21.7619 5.84674 21.999 5.25 21.999H2.25C1.65326 21.999 1.08097 21.7619 0.65901 21.34C0.237053 20.918 0 20.3457 0 19.749V8.469C0 7.787 0.31 7.141 0.842 6.714L8.592 0.495997V0.494997ZM10.469 1.665C10.3359 1.55837 10.1705 1.50027 10 1.50027C9.82948 1.50027 9.66406 1.55837 9.531 1.665L1.781 7.883C1.69334 7.95324 1.62258 8.04228 1.57395 8.14353C1.52531 8.24478 1.50004 8.35567 1.5 8.468V19.748C1.5 20.163 1.836 20.498 2.25 20.498H5.25C5.44891 20.498 5.63968 20.419 5.78033 20.2783C5.92098 20.1377 6 19.9469 6 19.748V13.748C6 13.1513 6.23705 12.579 6.65901 12.157C7.08097 11.735 7.65326 11.498 8.25 11.498H11.75C12.0456 11.498 12.3382 11.5562 12.6113 11.6694C12.8843 11.7825 13.1324 11.9483 13.3413 12.1574C13.5503 12.3664 13.716 12.6146 13.829 12.8877C13.942 13.1607 14.0001 13.4534 14 13.749V19.749C14 20.164 14.336 20.499 14.75 20.499H17.75C17.9489 20.499 18.1397 20.42 18.2803 20.2793C18.421 20.1387 18.5 19.9479 18.5 19.749V8.469C18.5001 8.35675 18.475 8.24591 18.4265 8.14467C18.378 8.04342 18.3075 7.95434 18.22 7.884L10.47 1.666L10.469 1.665Z" fill="white"/>
</svg>
