<svg width="38" height="38" viewBox="0 0 38 38" fill="none" xmlns="http://www.w3.org/2000/svg">
<path d="M36.9906 27.9656C36.9312 13.4781 24.6406 1.24687 10.1531 1.1875L1.36562 36.8125L36.9906 27.9656Z" fill="#F6DA77"/>
<path d="M32.3594 29.0937L33.6062 28.8562C33.0125 17.575 24.9375 5.75934 9.2625 4.57184L9.08437 5.75934C21.0781 7.30309 30.875 17.0406 32.3594 29.0937Z" fill="#860D16"/>
<path d="M33.5469 28.8562L36.9313 28.025C36.9906 13.5375 24.6406 1.1875 10.0344 1.1875L9.20312 4.57187C23.1563 5.87812 32.2406 15.0219 33.5469 28.8562Z" fill="#C98E52"/>
<path d="M8.01561 24.7594C7.00624 24.7594 6.11561 24.4031 5.40311 23.6906C5.10624 23.3937 5.10624 22.9187 5.40311 22.6812C5.69999 22.3844 6.17499 22.3844 6.41249 22.6812C7.24374 23.5125 8.72811 23.5125 9.55936 22.6812C9.97499 22.2656 10.2125 21.7312 10.2125 21.1375C10.2125 20.5437 9.97499 20.0094 9.55936 19.5937C9.26249 19.2969 9.26249 18.8219 9.55936 18.5844C9.85624 18.2875 10.3312 18.2875 10.5687 18.5844C11.2812 19.2969 11.6375 20.1875 11.6375 21.1969C11.6375 22.2062 11.2812 23.0968 10.5687 23.8094C9.91561 24.3437 8.96561 24.7594 8.01561 24.7594Z" fill="#83BF4F"/>
<path d="M22.9187 13.0031V13.3C22.8594 13.4781 22.8 13.5969 22.6219 13.7156C22.4437 13.8344 22.2656 13.8344 22.1469 13.775C21.6719 13.6563 21.1969 13.775 20.7812 14.0125C20.3656 14.25 20.0687 14.6656 19.95 15.1406C19.7125 16.0906 20.3656 17.1 21.3156 17.3375C21.6719 17.3969 21.9094 17.8125 21.7906 18.1094C21.7312 18.4656 21.375 18.7031 21.0187 18.5844C19.8312 18.2875 18.9406 17.3969 18.6437 16.2094C18.525 15.7344 18.525 15.2594 18.6437 14.8438C18.8219 14.0125 19.3562 13.3594 20.0687 12.8844C20.7812 12.4094 21.6125 12.2906 22.4437 12.4688C22.6219 12.5875 22.8594 12.7656 22.9187 13.0031Z" fill="#83BF4F"/>
<path d="M26.0656 30.2219H25.7687C25.5906 30.1625 25.4719 30.1031 25.4125 29.925C25.3531 29.8062 25.2937 29.6281 25.3531 29.45C25.4719 29.0343 25.4125 28.5594 25.175 28.1437C24.9375 27.7281 24.5812 27.4312 24.1062 27.3125C23.2156 27.075 22.2062 27.6687 21.9687 28.5C21.9094 28.7969 21.4937 29.0344 21.1969 28.9156C20.8406 28.7969 20.6625 28.5 20.7812 28.1437C21.0781 27.075 21.9687 26.1843 23.0969 26.0062C23.5125 25.9468 23.9875 25.9469 24.4031 26.0656C25.175 26.2437 25.8281 26.7781 26.1844 27.4312C26.6 28.1437 26.6594 28.9156 26.4812 29.6875C26.4812 29.9844 26.3031 30.1625 26.0656 30.2219Z" fill="#83BF4F"/>
<path d="M22.0281 21.4937C22.8594 23.9281 21.5531 26.5406 19.0594 27.3719C16.5656 28.2031 13.8938 26.8969 13.1219 24.4625C12.2906 22.0281 13.5969 19.4156 16.0906 18.5844C18.525 17.7531 21.1969 19.0594 22.0281 21.4937Z" fill="#B21725"/>
<path d="M29.45 21.9688C29.925 23.4531 29.1531 24.9969 27.6688 25.5313C26.1844 26.0063 24.5813 25.2344 24.1063 23.75C23.6313 22.2656 24.4031 20.7219 25.8875 20.1875C27.3125 19.7125 28.9156 20.4844 29.45 21.9688Z" fill="#B21725"/>
<path d="M17.2188 11.2813C17.8719 13.2406 16.8031 15.4375 14.7844 16.0906C12.7656 16.7438 10.5688 15.675 9.91564 13.7156C9.26252 11.7563 10.3313 9.55938 12.35 8.90626C14.3688 8.25313 16.5656 9.32188 17.2188 11.2813Z" fill="#B21725"/>
<path d="M20.425 32.0624L14.6656 33.4874C14.1313 31.9437 15.2 30.1031 16.7438 29.6874C18.6438 29.2124 19.8906 30.5781 20.425 32.0624Z" fill="#B21725"/>
<path d="M11.6375 27.9063C12.35 29.925 11.2219 32.1812 9.14376 32.8344C7.06564 33.5469 4.80939 32.4187 4.09689 30.3406C3.38439 28.3219 4.51251 26.0656 6.59064 25.4125C8.66876 24.7594 10.925 25.8875 11.6375 27.9063Z" fill="#B21725"/>
<path d="M9.20312 4.57184C12.35 4.63121 15.4969 5.22496 18.4656 6.41246C21.4344 7.54059 24.225 9.32184 26.4812 11.6375C28.7375 13.8937 30.5188 16.6843 31.7063 19.6531C32.8938 22.6218 33.4875 25.7687 33.5469 28.9156C33.0125 25.8281 32.1812 22.8 30.875 20.0093C29.5688 17.2187 27.8469 14.6062 25.65 12.4687C23.5125 10.2718 20.9 8.54996 18.1094 7.30309C15.3187 5.93746 12.2906 5.10621 9.20312 4.57184Z" fill="#E0A763"/>
<path d="M9.97144 7.97763L11.1471 6.802L12.3227 7.97763L11.1471 9.15325L9.97144 7.97763Z" fill="#FFAB41"/>
<path d="M17.6463 11.3073L18.8219 10.1317L19.9975 11.3073L18.8219 12.483L17.6463 11.3073Z" fill="#FFAB41"/>
<path d="M7.66413 15.7035L8.83976 14.5279L10.0154 15.7035L8.83976 16.8791L7.66413 15.7035Z" fill="#FFAB41"/>
<path d="M11.7254 19.0802L12.901 17.9045L14.0766 19.0802L12.901 20.2558L11.7254 19.0802Z" fill="#FFAB41"/>
<path d="M22.2923 19.2316L23.468 18.056L24.6436 19.2316L23.468 20.4072L22.2923 19.2316Z" fill="#FFAB41"/>
<path d="M29.108 27.6337L30.2836 26.4581L31.4592 27.6337L30.2836 28.8093L29.108 27.6337Z" fill="#FFAB41"/>
<path d="M11.6476 26.5121L12.8232 25.3365L13.9988 26.5121L12.8232 27.6877L11.6476 26.5121Z" fill="#FFAB41"/>
<path d="M12.4889 30.8174L13.6646 29.6418L14.8402 30.8174L13.6646 31.993L12.4889 30.8174Z" fill="#FFAB41"/>
<path d="M2.57569 34.5806L3.75132 33.405L4.92694 34.5806L3.75132 35.7562L2.57569 34.5806Z" fill="#FFAB41"/>
<path d="M8.29469 10.2885L9.17641 9.4068L10.0581 10.2885L9.17641 11.1702L8.29469 10.2885Z" fill="#FFAB41"/>
<path d="M15.7653 16.5615L16.647 15.6797L17.5287 16.5615L16.647 17.4432L15.7653 16.5615Z" fill="#FFAB41"/>
<path d="M23.7945 16.5983L24.6763 15.7166L25.558 16.5983L24.6763 17.48L23.7945 16.5983Z" fill="#FFAB41"/>
<path d="M7.97763 21.4724L8.85935 20.5906L9.74107 21.4724L8.85935 22.3541L7.97763 21.4724Z" fill="#FFAB41"/>
<path d="M4.37 24.9969L5.25171 24.1152L6.13343 24.9963L5.25171 25.878L4.37 24.9969Z" fill="#FFAB41"/>
<path d="M2.98657 32.3505L3.86829 31.4688L4.75001 32.3505L3.86829 33.2322L2.98657 32.3505Z" fill="#FFAB41"/>
<path d="M10.6139 32.8261L11.4956 31.9443L12.3773 32.8266L11.4956 33.7078L10.6139 32.8261Z" fill="#FFAB41"/>
<path d="M18.2744 28.7055L19.1562 27.8237L20.0379 28.7055L19.1562 29.5872L18.2744 28.7055Z" fill="#FFAB41"/>
<path d="M21.9937 30.2195L22.8754 29.3378L23.7571 30.2195L22.8754 31.1007L21.9937 30.2195Z" fill="#FFAB41"/>
<path d="M26.942 26.8197L27.8237 25.9385L28.7054 26.8203L27.8237 27.702L26.942 26.8197Z" fill="#FFAB41"/>
</svg>
