<svg width="30" height="30" viewBox="0 0 30 30" fill="none" xmlns="http://www.w3.org/2000/svg">
<rect width="30" height="30" rx="15" fill="#F8F0E8"/>
<path d="M14.0489 7.92705C14.3483 7.00574 15.6517 7.00574 15.9511 7.92705L17.0206 11.2188C17.1545 11.6309 17.5385 11.9098 17.9717 11.9098H21.4329C22.4016 11.9098 22.8044 13.1494 22.0207 13.7188L19.2205 15.7533C18.87 16.0079 18.7234 16.4593 18.8572 16.8713L19.9268 20.1631C20.2261 21.0844 19.1717 21.8506 18.388 21.2812L15.5878 19.2467C15.2373 18.9921 14.7627 18.9921 14.4122 19.2467L11.612 21.2812C10.8283 21.8506 9.77385 21.0844 10.0732 20.1631L11.1428 16.8713C11.2766 16.4593 11.13 16.0079 10.7795 15.7533L7.97933 13.7188C7.19562 13.1494 7.59839 11.9098 8.56712 11.9098H12.0283C12.4615 11.9098 12.8455 11.6309 12.9794 11.2188L14.0489 7.92705Z" fill="#F09416"/>
</svg>
